<svg id="Слой_1" data-name="Слой 1" xmlns="http://www.w3.org/2000/svg" viewBox="0 0 595.28 179.23"><defs><style>.cls-1{fill:red;}.cls-2{fill:#ffce00;}.cls-3{fill:#1b8900;}.cls-4{fill:#ffab31;}.cls-5{fill:#007aff;}</style></defs><path class="cls-1" d="M109.84,47.44l-23,11.25Q80.33,47.94,71.7,45T51.89,46.29q-11.83,4.47-16,11.57T34.15,71.42a11.14,11.14,0,0,0,5.19,6.11Q43,79.48,50.07,79.26q4.84-.2,21.55-2.31,21.47-2.74,32,1.11,14.82,5.43,20.07,19.31a31.39,31.39,0,0,1,1.06,18.71q-2.31,9.77-10.67,17.58t-22.34,13.1q-22.83,8.64-38,3.35T31.85,128.93L56,118.62Q60.94,127,67.6,129t17-1.92q10.68-4.05,15.12-10.56a9,9,0,0,0,1.15-8.73,9.45,9.45,0,0,0-6.33-5.72q-6-2-25.46.69t-29.63,1.59a36,36,0,0,1-17.9-6.82q-7.68-5.71-11.88-16.8a35.91,35.91,0,0,1-1.32-21A36.83,36.83,0,0,1,19.82,40.5q9-8.28,24.78-14.26,23-8.7,39.22-3.11T109.84,47.44Z"/><path class="cls-2" d="M186.92,115.91,210,120.3q-4.54,13.71-14.21,20.8t-24.09,7q-22.86-.2-33.71-16.43-8.57-13-8.43-32.73.17-23.57,11.64-36.8A36.21,36.21,0,0,1,170.07,49q19.55.16,30.75,14.23t10.5,42.87l-58.07-.49q.17,11.16,5.49,17.4a17,17,0,0,0,13.32,6.32,13.49,13.49,0,0,0,9.17-3.14Q185,123,186.92,115.91Zm1.5-25.33q-.18-10.89-5.08-16.59a15.89,15.89,0,0,0-24.59.1q-5,5.94-5,16.2Z"/><path class="cls-3" d="M251.18,79.69l-21.62-4.15Q233.31,62.28,242.27,56t26.54-6.18q16,.12,23.75,4t10.92,9.85q3.15,5.94,3,21.74L306,113.72q-.1,12.09,1,17.84a53,53,0,0,0,4.2,12.33l-23.6-.18c-.61-1.62-1.36-4-2.24-7.19-.39-1.44-.66-2.39-.83-2.85a43.11,43.11,0,0,1-13.14,9,37.08,37.08,0,0,1-14.88,2.9q-13.94-.1-21.9-7.86t-7.87-19.49a26.46,26.46,0,0,1,3.75-13.83,24,24,0,0,1,10.3-9.24q6.61-3.19,19-5.51,16.75-3.06,23.23-5.77l0-2.42q0-7-3.33-10T267,68.33q-6.37,0-10,2.47T251.18,79.69ZM283,99.63a149.28,149.28,0,0,1-14.55,3.6q-9.95,2.07-13,4.12a10.15,10.15,0,0,0-4.73,8.52,12,12,0,0,0,3.66,8.83,12.93,12.93,0,0,0,9.48,3.79,20.45,20.45,0,0,0,12.35-4.22,15.17,15.17,0,0,0,5.75-8q1-3.11,1-11.82Z"/><path class="cls-4" d="M352.42,145.53l-23.86-.19.69-93,22.16.18-.09,13.23q5.74-9.33,10.32-12.27A18.4,18.4,0,0,1,372,50.58a29.55,29.55,0,0,1,15.67,4.77L380.1,76.74q-6-4.06-11.17-4.12a13,13,0,0,0-8.51,2.78q-3.51,2.82-5.56,10.25t-2.23,31.16Z"/><path class="cls-5" d="M476.36,80.94l-23.55,4.18q-1.14-7.26-5.31-11t-10.88-3.76q-8.92-.06-14.27,6.23t-5.47,21.15q-.12,16.52,5.22,23.37a17.51,17.51,0,0,0,14.43,6.94,15.81,15.81,0,0,0,11.15-3.89q4.36-3.94,6.22-13.63l23.4,4.3q-3.78,16.58-14.2,25t-27.82,8.25q-19.78-.15-31.45-13.1t-11.5-35.66q.18-23,12.07-35.7t32-12.54q16.47.14,26.14,7.51T476.36,80.94Z"/><path class="cls-4" d="M531.8,17.78,522,62.38q14.18-10.68,29.84-7.23a35.11,35.11,0,0,1,13.86,6.17,24.18,24.18,0,0,1,8.07,9.76A28.16,28.16,0,0,1,576,82.32q0,5.9-2.63,17.73L562,151.61l-23.3-5.13,10.19-46.42q3-13.83,2.53-17.84a11.85,11.85,0,0,0-3.38-7,15.51,15.51,0,0,0-7.94-4,19.81,19.81,0,0,0-11,.54,16.57,16.57,0,0,0-8.53,7q-3.36,5.2-5.8,16.29l-9.67,44L481.85,134,508.49,12.66Z"/></svg>